<?xml version="1.0" standalone="no"?>
<!DOCTYPE svg PUBLIC "-//W3C//DTD SVG 20010904//EN"
 "http://www.w3.org/TR/2001/REC-SVG-20010904/DTD/svg10.dtd">
<svg version="1.0" xmlns="http://www.w3.org/2000/svg"
 width="1920.000000pt" height="1920.000000pt" viewBox="0 0 1920.000000 1920.000000"
 preserveAspectRatio="xMidYMid meet">
<metadata>
Created by potrace 1.14, written by Peter Selinger 2001-2017
</metadata>
<g transform="translate(0.000000,1920.000000) scale(0.100000,-0.100000)"
fill="#000000" stroke="none">
<path d="M1323 14109 c-236 -40 -327 -178 -326 -494 0 -209 36 -330 121 -407
46 -42 58 -49 127 -74 46 -17 95 -19 555 -24 l505 -5 3 -3432 2 -3433 -439 0
c-542 0 -622 -9 -731 -85 -110 -76 -168 -292 -141 -530 30 -262 119 -361 355
-394 108 -15 3294 -15 3402 0 255 35 354 175 354 499 0 290 -78 428 -275 486
-54 16 -126 18 -737 21 l-678 4 0 1124 0 1123 149 142 c82 78 184 168 227 201
209 161 493 274 777 309 150 19 405 8 537 -23 311 -74 559 -236 736 -483 170
-237 330 -562 533 -1079 400 -1018 529 -1301 735 -1615 258 -392 541 -615 885
-697 88 -20 796 -31 927 -13 245 32 335 130 365 395 9 81 9 129 0 210 -36 323
-155 405 -590 405 -180 0 -237 11 -345 68 -96 50 -241 194 -329 327 -135 205
-225 404 -481 1068 -319 824 -453 1112 -669 1437 -310 467 -681 744 -1153 864
-177 45 -302 59 -521 60 l-203 1 88 86 c48 47 695 673 1437 1389 743 717 1410
1362 1483 1434 l132 131 318 5 c300 6 320 7 375 29 123 49 191 135 221 283 18
88 21 263 6 356 -30 182 -116 282 -280 323 -46 12 -286 14 -1400 14 l-1345 0
-72 -23 c-185 -58 -258 -195 -257 -482 2 -305 87 -443 302 -489 33 -7 174 -11
378 -11 198 0 324 -4 322 -9 -5 -14 -3271 -3211 -3280 -3211 -4 0 -7 723 -6
1608 l3 1607 430 5 c386 5 435 7 480 24 69 25 81 32 127 74 84 76 121 198 122
402 1 284 -70 421 -252 482 l-67 23 -1445 1 c-795 1 -1468 -2 -1497 -7z"/>
<path d="M13975 12304 c-749 -60 -1358 -274 -1899 -668 -553 -403 -981 -1011
-1196 -1701 -116 -369 -168 -711 -177 -1151 -24 -1180 303 -2134 956 -2785
632 -630 1496 -939 2626 -939 704 0 1432 112 2120 325 353 110 766 283 915
385 169 115 250 292 220 479 -27 167 -128 378 -230 481 -90 92 -141 115 -255
115 -108 0 -140 -11 -315 -106 -384 -209 -883 -384 -1405 -493 -516 -107
-1137 -135 -1585 -70 -469 68 -865 238 -1167 504 -336 293 -566 741 -657 1275
-20 115 -46 346 -46 408 l0 47 2753 0 c1823 0 2773 4 2815 10 278 45 358 203
318 626 -54 567 -185 1053 -406 1509 -362 747 -998 1303 -1791 1565 -230 76
-481 129 -779 165 -129 16 -690 29 -815 19z m735 -1099 c991 -132 1588 -671
1805 -1629 13 -60 22 -113 19 -118 -6 -9 -4567 -11 -4576 -2 -8 7 43 197 83
310 162 460 458 842 849 1097 317 206 680 319 1160 361 99 9 550 -4 660 -19z"/>
</g>
</svg>
